<?xml version="1.0" standalone="no"?>
<!DOCTYPE svg PUBLIC "-//W3C//DTD SVG 20010904//EN"
 "http://www.w3.org/TR/2001/REC-SVG-20010904/DTD/svg10.dtd">
<svg version="1.0" xmlns="http://www.w3.org/2000/svg"
 width="1175.000000pt" height="1175.000000pt" viewBox="0 0 1175.000000 1175.000000"
 preserveAspectRatio="xMidYMid meet">
<metadata>
Created by potrace 1.14, written by Peter Selinger 2001-2017
</metadata>
<g transform="translate(0.000000,1175.000000) scale(0.100000,-0.100000)"
fill="#000000" stroke="none">
<path d="M6007 10569 c-9 -6 -21 -8 -26 -4 -5 3 -13 0 -17 -6 -4 -8 -9 -7 -15
2 -6 10 -9 10 -9 2 0 -7 -7 -10 -17 -6 -9 4 -14 2 -10 -3 3 -5 -3 -10 -14 -10
-10 0 -19 4 -19 9 0 5 -7 4 -15 -3 -12 -10 -15 -10 -15 0 0 9 -4 9 -13 2 -7
-6 -26 -14 -42 -17 -36 -7 -37 -8 -95 -25 -25 -8 -47 -17 -50 -20 -3 -3 -25
-12 -50 -20 -25 -8 -47 -17 -50 -20 -13 -14 -52 -30 -60 -25 -6 4 -10 2 -10
-4 0 -9 -101 -76 -109 -72 -2 2 -11 -9 -21 -23 -9 -15 -19 -24 -22 -21 -3 3
-19 -10 -37 -30 -17 -20 -31 -33 -31 -29 0 3 -16 -13 -35 -36 -19 -23 -35 -39
-35 -35 0 4 -10 -8 -23 -26 -23 -34 -51 -70 -74 -94 -7 -7 -9 -15 -6 -19 4 -3
1 -6 -6 -6 -7 0 -10 -4 -7 -9 3 -5 -1 -12 -10 -15 -8 -3 -13 -10 -10 -15 3 -5
-1 -12 -10 -15 -8 -3 -12 -10 -9 -16 3 -5 1 -10 -5 -10 -6 0 -8 -4 -5 -10 3
-5 2 -10 -4 -10 -6 0 -7 -7 -4 -17 4 -10 2 -14 -5 -9 -7 4 -13 -6 -18 -29 -3
-19 -10 -35 -15 -35 -5 0 -9 -9 -9 -20 0 -11 -4 -20 -10 -20 -5 0 -10 -9 -10
-19 0 -11 -4 -22 -9 -26 -6 -3 -8 -14 -6 -25 2 -11 1 -20 -3 -20 -4 0 -9 -10
-9 -22 -1 -13 -6 -24 -11 -26 -6 -2 -7 -12 -4 -24 3 -12 1 -19 -4 -16 -5 4 -9
-5 -9 -18 0 -13 4 -24 9 -24 5 0 3 -7 -4 -15 -7 -8 -10 -22 -6 -30 3 -8 1 -15
-5 -15 -6 0 -7 -4 -4 -10 3 -5 2 -18 -3 -27 -6 -10 -6 -26 -1 -40 5 -13 5 -23
0 -23 -5 0 -8 -18 -7 -40 0 -22 -2 -40 -6 -40 -4 0 -3 -13 2 -30 5 -17 5 -30
0 -30 -5 0 -5 -13 0 -30 6 -20 5 -30 -2 -30 -6 0 -6 -6 2 -15 7 -8 10 -21 7
-29 -3 -7 0 -19 6 -26 9 -10 9 -11 -2 -5 -10 6 -12 4 -5 -6 9 -15 13 -30 16
-69 1 -14 7 -28 13 -32 6 -5 5 -8 -4 -8 -11 0 -11 -3 -1 -15 6 -8 9 -19 5 -25
-3 -5 -2 -10 4 -10 6 0 8 -7 5 -15 -4 -8 -2 -15 3 -15 5 0 10 -12 11 -27 1
-15 7 -30 13 -34 6 -3 10 -9 10 -13 -1 -3 5 -19 13 -35 9 -16 12 -31 9 -35 -4
-3 -1 -6 5 -6 7 0 12 -7 12 -16 0 -9 8 -23 18 -32 10 -10 11 -12 3 -7 -9 6 1
-11 22 -36 20 -25 37 -51 37 -58 0 -6 5 -11 11 -11 5 0 7 -4 4 -10 -3 -5 1
-10 9 -10 9 0 16 -5 16 -11 0 -15 205 -213 213 -207 8 6 75 -61 69 -67 -4 -4
-2 -5 3 -4 16 5 75 -34 75 -49 0 -7 5 -10 10 -7 6 3 10 1 10 -4 0 -6 7 -11 15
-11 8 0 14 -3 13 -7 -2 -5 1 -9 6 -10 5 -1 12 -5 15 -10 3 -5 22 -20 41 -33
19 -13 45 -34 58 -48 12 -14 22 -22 22 -18 0 4 6 1 14 -6 32 -31 77 -68 83
-69 15 -3 53 -37 53 -48 0 -6 6 -11 14 -11 8 0 22 -10 31 -22 8 -13 18 -21 21
-19 7 4 59 -36 101 -76 13 -13 30 -23 38 -23 8 0 15 -7 15 -15 0 -8 6 -15 13
-15 7 0 27 -13 45 -29 17 -17 45 -38 62 -48 17 -9 33 -25 36 -35 3 -10 10 -19
15 -19 5 -1 14 -2 20 -3 6 0 16 -9 23 -18 7 -10 16 -15 19 -11 4 3 7 -1 7 -10
0 -10 5 -17 10 -17 11 0 14 -2 71 -50 20 -16 42 -30 48 -30 6 0 11 -7 11 -15
0 -8 11 -17 25 -21 14 -3 25 -12 25 -19 0 -8 5 -17 12 -21 7 -5 8 -2 3 7 -5 8
3 5 16 -7 13 -11 32 -27 43 -35 10 -8 32 -26 48 -41 16 -16 31 -28 34 -28 5 0
46 -34 87 -72 17 -16 33 -28 36 -28 3 0 15 -13 26 -29 10 -16 22 -28 26 -25 4
2 16 -9 25 -26 10 -16 27 -33 37 -36 10 -3 16 -8 14 -10 -3 -3 17 -28 44 -56
27 -29 49 -57 49 -64 0 -6 7 -14 15 -18 8 -3 15 -12 15 -21 0 -8 7 -15 16 -15
8 0 12 -4 9 -10 -3 -5 -1 -10 4 -10 6 0 11 -7 11 -15 0 -8 4 -15 10 -15 5 0 9
-3 8 -7 -1 -5 8 -27 20 -50 12 -24 19 -43 15 -43 -5 0 -1 -5 7 -10 8 -5 10
-10 4 -10 -6 0 -8 -19 -4 -55 3 -30 2 -55 -2 -55 -5 0 -4 -9 2 -20 8 -14 8
-20 0 -20 -8 0 -8 -6 0 -20 8 -14 8 -20 0 -20 -8 0 -8 -6 0 -20 6 -11 7 -20 2
-20 -5 0 -6 -22 -2 -50 4 -27 4 -50 0 -50 -4 0 -4 -22 0 -50 4 -27 3 -50 -2
-50 -5 0 -4 -9 2 -20 6 -11 7 -20 2 -20 -5 0 -6 -22 -2 -50 4 -27 4 -50 0 -50
-4 0 -4 -22 0 -50 4 -27 3 -50 -2 -50 -5 0 -4 -9 2 -20 6 -11 7 -20 2 -20 -5
0 -6 -22 -2 -50 4 -27 4 -50 0 -50 -4 0 -4 -22 0 -50 4 -27 3 -50 -2 -50 -5 0
-4 -9 2 -20 6 -11 7 -20 2 -20 -5 0 -6 -22 -2 -50 4 -27 4 -50 0 -50 -4 0 -4
-22 0 -50 4 -27 3 -50 -2 -50 -5 0 -4 -9 2 -20 6 -11 7 -20 3 -20 -4 0 -9 -16
-10 -35 -3 -53 -6 -65 -15 -59 -7 5 -12 -10 -9 -28 0 -5 -4 -8 -11 -8 -6 0 -9
-3 -5 -6 3 -3 -4 -16 -16 -29 -39 -40 -72 -86 -70 -96 2 -5 -4 -9 -13 -9 -8 0
-13 -3 -11 -7 2 -5 -4 -16 -15 -25 -10 -10 -18 -15 -18 -12 0 3 -12 -8 -26
-25 -14 -17 -32 -31 -40 -31 -9 0 -12 -4 -9 -10 3 -5 -1 -10 -10 -10 -9 0 -14
-4 -10 -9 3 -5 -5 -13 -17 -17 -13 -4 -29 -14 -36 -23 -10 -12 -12 -13 -6 -1
3 8 -7 1 -24 -17 -16 -17 -32 -29 -35 -26 -3 3 -16 -4 -28 -16 -12 -11 -26
-18 -31 -15 -4 3 -8 0 -8 -5 0 -6 -7 -11 -15 -11 -8 0 -15 -5 -15 -11 0 -5 -4
-8 -9 -4 -5 3 -16 -1 -23 -9 -8 -7 -25 -17 -38 -20 -32 -9 -87 -32 -122 -51
-17 -8 -28 -10 -28 -4 0 6 -12 2 -27 -9 -16 -10 -34 -17 -40 -15 -7 3 -13 -1
-13 -9 0 -10 -3 -9 -10 2 -8 12 -10 12 -10 1 0 -8 -3 -12 -6 -8 -3 3 -17 2
-30 -3 -17 -7 -24 -6 -24 3 0 8 -3 9 -8 1 -4 -6 -19 -10 -34 -10 -16 1 -28 -3
-28 -8 0 -5 -3 -6 -6 -3 -4 3 -15 2 -25 -3 -12 -7 -19 -6 -22 3 -4 9 -8 9 -15
-2 -7 -9 -19 -11 -37 -7 -15 4 -24 3 -22 -1 3 -4 -9 -7 -26 -7 -18 1 -38 -3
-44 -9 -9 -6 -13 -6 -13 3 0 10 -3 10 -15 0 -9 -7 -15 -8 -15 -2 0 12 -33 10
-42 -3 -5 -6 -8 -5 -8 4 0 11 -3 11 -15 1 -11 -9 -15 -9 -15 -1 0 7 -5 9 -10
6 -6 -4 -17 -1 -25 5 -12 10 -15 10 -15 0 0 -10 -3 -10 -14 -1 -11 9 -15 9
-19 -1 -3 -7 -6 -8 -6 -3 -1 6 -18 9 -41 7 -26 -3 -40 0 -40 8 0 6 -4 9 -9 5
-6 -3 -28 -1 -50 4 -25 5 -41 5 -41 0 0 -5 -12 -1 -27 8 -15 10 -24 13 -20 6
5 -9 -3 -8 -28 3 -20 8 -40 12 -44 10 -4 -3 -18 4 -29 15 -14 13 -22 15 -22 7
0 -8 -3 -9 -8 -3 -7 10 -110 55 -125 55 -5 0 -15 7 -24 15 -8 9 -28 19 -44 22
-16 3 -26 9 -23 14 3 5 -2 9 -10 9 -9 0 -16 5 -16 10 0 6 -9 10 -20 10 -11 0
-20 5 -20 10 0 6 -5 10 -11 10 -5 0 -24 13 -42 30 -18 16 -38 30 -44 30 -7 0
-13 5 -13 10 0 6 -11 16 -25 22 -14 6 -25 17 -25 25 0 7 -6 13 -14 13 -8 0
-23 11 -34 25 -11 13 -22 21 -26 18 -3 -3 -6 1 -6 11 0 9 -4 14 -10 11 -5 -3
-10 -3 -10 2 0 7 -14 25 -75 97 -14 15 -25 32 -25 37 0 5 -4 9 -10 9 -5 0 -10
7 -10 16 0 8 -4 12 -10 9 -5 -3 -10 3 -10 14 0 12 -4 21 -10 21 -5 0 -10 7
-10 15 0 8 -5 15 -11 15 -5 0 -8 4 -4 9 3 5 -2 16 -10 24 -8 9 -15 23 -15 31
0 9 -3 16 -7 16 -5 0 -13 11 -19 25 -9 18 -9 25 0 29 7 3 7 5 -1 5 -7 1 -13
12 -13 25 0 13 -4 26 -9 28 -5 2 -11 12 -13 23 -1 11 -7 23 -11 26 -5 3 -9 20
-9 37 -1 18 -5 32 -9 32 -4 0 -6 9 -4 20 2 11 0 22 -5 25 -5 3 -6 13 -3 22 4
11 3 14 -5 9 -8 -5 -10 -2 -6 8 3 9 1 29 -4 46 -6 16 -8 30 -4 30 4 0 8 9 8
20 0 11 -4 20 -9 20 -4 0 -5 5 -2 10 3 6 1 10 -6 10 -10 0 -10 3 -1 12 13 13
17 32 5 25 -5 -3 -8 6 -8 19 0 13 3 24 6 24 3 0 6 7 6 15 0 8 -4 15 -9 15 -5
0 -4 10 3 21 8 17 8 23 -2 30 -9 5 -10 12 -3 21 5 7 9 32 9 55 0 24 3 43 6 43
3 0 4 14 1 30 -3 20 0 30 8 30 9 0 9 4 -1 17 -12 14 -12 15 0 9 10 -7 12 -3 6
13 -4 14 -2 21 7 21 10 0 9 3 -2 10 -12 8 -12 10 -1 10 8 0 11 3 8 7 -4 3 -2
12 4 20 9 10 8 13 -1 13 -9 0 -9 4 -2 13 6 7 13 24 16 39 2 14 9 35 15 46 6
11 8 22 4 25 -3 4 0 13 6 21 7 9 10 24 6 37 -5 14 -4 19 4 15 7 -4 11 1 11 13
0 11 5 23 10 26 6 4 8 10 5 15 -3 5 -1 11 5 15 6 4 8 10 5 15 -3 4 2 13 10 20
8 7 12 16 9 21 -3 5 0 9 6 9 6 0 8 5 5 10 -3 6 -2 10 3 10 6 0 13 7 16 16 4
10 2 13 -7 8 -6 -4 -4 2 6 13 9 11 17 27 17 36 0 9 5 17 10 17 6 0 10 6 10 14
0 7 7 19 15 26 9 7 13 15 11 18 -3 2 7 20 22 40 15 19 25 36 22 36 -6 1 51 78
65 88 5 4 7 8 3 8 -5 0 1 9 12 20 24 24 25 39 5 46 -8 4 -15 13 -15 22 0 8 -3
12 -7 9 -3 -4 -11 -2 -18 3 -8 7 -24 -6 -54 -43 -24 -28 -46 -51 -49 -50 -4 1
-5 -6 -4 -15 2 -9 1 -14 -3 -10 -9 8 -35 -16 -35 -31 0 -6 -4 -11 -10 -11 -5
0 -17 -15 -26 -32 -9 -18 -20 -35 -23 -38 -4 -3 -18 -23 -31 -45 -13 -22 -30
-46 -37 -53 -7 -8 -11 -18 -7 -23 3 -5 -2 -12 -10 -15 -9 -3 -13 -10 -10 -15
3 -5 0 -9 -5 -9 -6 0 -11 -6 -11 -14 0 -7 -7 -19 -15 -26 -8 -7 -12 -16 -9
-21 3 -5 0 -9 -6 -9 -6 0 -8 -4 -5 -10 3 -5 1 -10 -6 -10 -7 0 -9 -3 -6 -7 4
-3 -1 -15 -10 -26 -10 -11 -12 -17 -5 -13 6 4 12 2 12 -4 0 -6 -7 -13 -15 -16
-8 -4 -13 -10 -10 -14 3 -4 -2 -21 -10 -36 -8 -16 -15 -35 -15 -41 0 -7 -6
-13 -12 -13 -10 0 -9 -3 1 -9 10 -6 10 -10 1 -16 -6 -4 -9 -13 -6 -21 3 -8 0
-17 -7 -20 -6 -2 -13 -18 -14 -35 -1 -17 -8 -37 -14 -45 -9 -11 -9 -14 0 -14
9 0 9 -5 1 -20 -6 -11 -8 -24 -6 -29 3 -5 -2 -12 -11 -15 -15 -6 -15 -8 -3
-16 13 -9 13 -10 0 -10 -13 0 -13 -1 0 -10 8 -5 10 -10 5 -10 -9 0 -15 -21
-18 -67 0 -7 -3 -13 -7 -13 -4 0 -7 -7 -7 -15 0 -8 5 -15 10 -15 6 0 6 -5 0
-12 -6 -7 -9 -21 -8 -30 2 -10 -1 -18 -5 -18 -5 0 -5 -13 0 -30 6 -20 5 -30
-2 -30 -6 0 -5 -7 3 -17 10 -11 10 -14 2 -9 -16 9 -17 -6 -1 -22 7 -7 8 -12 4
-12 -5 0 -3 -7 4 -15 10 -12 10 -15 0 -15 -10 0 -10 -3 0 -15 10 -12 10 -15 0
-15 -10 0 -10 -3 0 -15 9 -11 9 -15 1 -15 -7 0 -9 -5 -4 -12 4 -7 8 -20 8 -28
0 -8 4 -21 8 -27 5 -8 3 -13 -5 -13 -9 0 -10 -3 -2 -8 6 -4 10 -15 8 -24 -1
-10 1 -18 5 -18 4 0 8 -15 9 -33 4 -51 10 -78 23 -93 9 -11 8 -14 -2 -14 -8 0
-6 -6 7 -16 10 -8 13 -13 7 -9 -7 3 -13 1 -13 -4 0 -6 5 -11 10 -11 6 0 10 -6
9 -12 -1 -7 3 -26 9 -41 7 -16 12 -33 12 -38 0 -5 4 -9 8 -9 5 0 9 -7 10 -15
1 -8 3 -22 4 -30 1 -8 6 -15 11 -15 6 0 8 -3 4 -6 -6 -6 61 -145 76 -155 4 -3
9 -13 11 -22 1 -9 12 -28 24 -42 12 -14 19 -25 14 -25 -4 -1 3 -9 16 -20 13
-10 22 -21 20 -24 -3 -4 20 -32 114 -140 16 -17 28 -34 28 -38 0 -5 6 -8 14
-8 16 0 86 -67 78 -75 -3 -3 2 -5 11 -5 10 0 25 -9 34 -20 10 -11 23 -20 30
-20 7 0 13 -4 13 -10 0 -5 7 -10 15 -10 8 0 20 -9 27 -19 6 -10 17 -17 25 -14
7 3 15 -2 19 -10 3 -9 11 -14 18 -11 7 3 20 -4 30 -15 10 -11 23 -18 27 -15 5
3 9 0 9 -5 0 -6 9 -11 20 -11 11 0 23 -7 27 -16 3 -8 12 -13 19 -10 8 3 14 1
14 -4 0 -6 11 -10 25 -10 14 0 25 -4 25 -10 0 -5 9 -10 20 -10 11 0 20 -5 20
-10 0 -6 6 -10 13 -8 6 1 22 -3 34 -10 12 -7 33 -13 47 -14 15 -1 26 -6 26
-10 0 -4 10 -8 23 -8 13 0 28 -5 35 -12 9 -9 12 -9 12 1 0 11 3 11 15 1 8 -7
15 -9 15 -5 0 4 6 2 13 -4 8 -6 17 -8 20 -5 4 4 18 -1 32 -10 18 -12 25 -13
25 -4 0 9 3 8 10 -2 9 -13 10 -13 10 0 0 10 3 11 8 4 4 -6 15 -10 25 -8 9 1
17 -3 17 -9 0 -5 3 -7 6 -4 4 3 15 2 25 -4 14 -7 19 -6 19 3 0 10 2 10 9 -1 7
-11 9 -11 14 0 4 11 6 11 6 1 1 -7 6 -10 11 -7 6 3 10 1 10 -5 0 -8 6 -8 20 0
12 6 20 7 20 1 0 -10 19 -9 38 2 7 5 12 3 12 -4 0 -7 3 -10 6 -7 3 4 19 2 35
-2 16 -5 29 -5 29 -1 0 4 27 4 60 1 33 -3 60 -3 60 1 0 4 14 4 30 -1 17 -5 30
-5 30 0 0 5 13 5 30 0 17 -5 30 -6 30 -2 0 4 17 7 38 6 20 0 47 3 60 8 14 5
22 4 22 -3 0 -8 4 -8 13 0 8 6 17 8 20 4 4 -3 7 0 7 8 0 11 2 11 10 -1 5 -8
10 -10 10 -3 0 6 8 9 19 6 10 -3 22 0 25 6 5 8 13 8 28 0 16 -9 19 -8 13 2 -6
9 -3 11 8 6 9 -3 18 -1 21 6 3 8 5 8 5 -1 1 -10 5 -9 17 3 12 12 19 13 24 5 6
-9 9 -9 14 -1 4 6 12 9 17 6 5 -4 9 -2 9 4 0 5 11 8 25 6 14 -1 25 1 25 5 0 4
11 6 25 5 14 -2 25 1 25 7 0 6 7 8 15 4 8 -3 15 0 15 5 0 6 9 9 20 6 11 -3 20
-2 20 3 0 6 14 13 50 24 3 1 11 5 18 9 6 5 12 5 12 0 0 -4 4 -3 8 3 9 14 72
35 83 28 5 -3 8 0 7 8 -2 7 4 12 13 10 8 -1 24 6 35 17 11 10 30 22 42 25 12
4 22 12 22 17 0 6 5 7 10 4 6 -3 10 -3 10 2 0 9 48 33 66 33 7 0 14 -18 16
-40 2 -22 1 -40 -3 -40 -3 0 -3 -18 1 -40 4 -22 4 -40 -1 -40 -4 0 -4 -13 1
-30 5 -19 5 -30 -1 -30 -6 0 -5 -8 1 -20 6 -11 7 -20 3 -20 -4 0 -7 -24 -7
-52 1 -29 -3 -59 -8 -65 -7 -9 -7 -13 1 -13 9 0 9 -5 0 -21 -8 -16 -8 -20 1
-14 9 6 9 2 1 -14 -9 -16 -9 -21 1 -21 9 0 9 -3 0 -12 -13 -13 -17 -32 -4 -24
8 5 7 -62 -2 -71 -3 -4 -1 -12 5 -20 6 -7 7 -13 2 -13 -5 0 -10 -19 -12 -42
-1 -23 -4 -45 -7 -50 -3 -4 0 -8 6 -8 6 0 8 -5 3 -12 -4 -7 -8 -17 -9 -23 -1
-5 -5 -18 -9 -27 -4 -11 -3 -18 4 -18 7 0 7 -8 0 -27 -7 -20 -6 -28 3 -35 9
-5 9 -8 1 -8 -6 0 -10 -11 -8 -25 1 -14 -1 -25 -5 -25 -4 0 -6 -13 -5 -30 1
-16 -2 -30 -6 -30 -4 0 -6 -13 -5 -30 1 -19 -3 -31 -13 -35 -14 -5 -14 -7 -1
-16 10 -5 11 -12 5 -16 -11 -9 -17 -28 -17 -60 0 -13 -4 -23 -9 -23 -4 0 -6
-9 -4 -20 2 -11 -1 -20 -6 -20 -6 0 -8 -4 -4 -9 3 -5 0 -13 -6 -17 -8 -4 -7
-9 2 -15 10 -6 10 -9 2 -9 -7 0 -10 -7 -7 -15 4 -8 1 -15 -5 -15 -6 0 -8 -7
-5 -15 4 -8 2 -15 -2 -15 -5 0 -10 -14 -11 -32 -1 -17 -8 -35 -14 -39 -6 -4
-9 -11 -5 -17 3 -5 -1 -15 -9 -22 -7 -6 -11 -18 -8 -26 3 -8 0 -14 -6 -14 -6
0 -8 -7 -5 -15 4 -8 1 -15 -6 -15 -7 0 -10 -7 -6 -15 3 -8 1 -15 -3 -15 -5 0
-12 -7 -15 -16 -3 -8 -2 -13 3 -9 5 3 -2 -17 -15 -45 -13 -27 -24 -54 -24 -60
0 -5 -4 -10 -8 -10 -4 0 -14 -15 -21 -32 -8 -18 -15 -35 -16 -38 -2 -3 -6 -15
-10 -27 -4 -13 -11 -23 -16 -23 -5 0 -9 -7 -9 -15 0 -8 -4 -15 -10 -15 -5 0
-16 -15 -24 -34 -8 -18 -19 -37 -25 -40 -6 -4 -9 -11 -6 -16 3 -4 -2 -11 -11
-14 -8 -3 -12 -10 -9 -16 3 -5 2 -10 -4 -10 -6 0 -26 -21 -46 -48 -20 -26 -39
-46 -41 -44 -2 1 -3 0 -1 -2 1 -2 -17 -19 -40 -37 -23 -19 -42 -40 -42 -48 -1
-8 -4 -12 -7 -8 -3 3 -15 -2 -26 -11 -46 -39 -57 -48 -78 -62 -12 -8 -28 -20
-34 -25 -6 -6 -32 -21 -58 -35 -27 -14 -48 -28 -48 -32 0 -5 -7 -8 -15 -8 -8
0 -15 -5 -15 -11 0 -5 -4 -7 -10 -4 -5 3 -10 1 -10 -5 0 -6 -4 -9 -9 -6 -5 3
-14 -1 -21 -9 -7 -8 -16 -13 -20 -10 -4 3 -34 -7 -66 -22 -32 -14 -64 -26 -71
-26 -7 0 -13 -4 -13 -9 0 -5 -4 -7 -9 -3 -5 3 -12 1 -16 -5 -4 -6 -11 -8 -16
-5 -5 4 -9 1 -9 -5 0 -6 -5 -8 -11 -4 -6 3 -15 0 -20 -7 -7 -11 -9 -11 -9 -1
0 10 -5 10 -20 2 -11 -6 -25 -8 -30 -5 -6 3 -10 1 -10 -5 0 -7 -6 -10 -14 -7
-8 3 -17 1 -20 -6 -3 -8 -5 -8 -5 2 -1 11 -4 11 -16 1 -8 -7 -22 -10 -30 -6
-8 3 -15 1 -15 -3 0 -5 -11 -8 -25 -6 -14 1 -25 -2 -25 -7 0 -5 -9 -4 -19 2
-14 7 -22 7 -27 -1 -3 -6 -19 -9 -35 -7 -16 3 -29 1 -29 -3 0 -4 -13 -4 -30 1
-19 5 -30 5 -30 -1 0 -6 -4 -8 -8 -5 -5 3 -37 6 -70 7 -36 1 -62 6 -62 12 0 7
-4 7 -12 -1 -7 -7 -17 -8 -30 -1 -10 5 -18 7 -18 3 0 -3 -6 -1 -14 5 -11 9
-15 9 -19 -1 -4 -9 -6 -10 -6 -1 -1 7 -8 10 -16 7 -8 -4 -15 -1 -15 5 0 13
-22 10 -32 -4 -4 -5 -8 -1 -8 10 0 15 -2 17 -9 7 -7 -12 -11 -11 -22 1 -10 10
-21 12 -36 6 -17 -6 -25 -4 -32 9 -6 9 -11 12 -11 5 0 -8 -9 -7 -30 4 -34 17
-60 12 -60 -12 0 -8 -4 -15 -8 -15 -5 0 -9 -6 -9 -12 0 -7 -3 -23 -7 -36 -6
-19 -3 -23 23 -28 17 -4 31 -10 31 -15 0 -5 9 -9 20 -9 11 0 20 -5 20 -11 0
-5 5 -7 10 -4 6 3 10 1 10 -5 0 -6 5 -8 10 -5 6 4 17 1 25 -5 8 -7 15 -9 15
-5 0 4 7 2 15 -5 8 -7 15 -9 15 -4 0 5 5 2 10 -6 8 -13 10 -13 10 -1 0 12 3
12 12 3 7 -7 20 -12 30 -12 10 0 18 -6 18 -12 0 -10 3 -9 9 1 5 7 10 9 12 3 2
-6 18 -12 34 -13 17 -2 41 -9 55 -16 16 -8 26 -9 28 -2 3 6 9 6 18 -2 7 -6 21
-9 29 -5 8 3 15 1 15 -3 0 -5 8 -8 18 -6 9 1 23 -2 30 -8 6 -5 12 -6 12 -1 0
5 38 8 85 6 47 -2 85 -8 85 -12 0 -6 11 -5 26 0 14 6 23 6 20 1 -4 -5 9 -4 28
1 24 8 43 7 65 0 20 -7 33 -7 37 -1 3 6 12 8 20 5 8 -3 14 0 14 7 0 8 4 6 10
-3 5 -8 10 -10 10 -5 0 6 19 9 42 9 24 -1 49 3 56 8 8 7 12 7 12 -3 0 -10 3
-10 12 -1 7 7 26 12 43 12 17 0 37 6 44 13 11 10 12 9 6 -1 -6 -11 -3 -12 12
-3 19 10 64 21 91 23 6 1 12 5 12 9 0 4 8 6 18 4 9 -1 22 2 28 7 7 5 26 10 43
11 17 1 33 8 35 14 3 7 12 10 20 7 8 -3 17 0 21 5 3 6 11 9 16 6 5 -4 9 -1 9
5 0 6 5 8 10 5 6 -3 25 4 43 17 17 13 32 21 32 19 0 -3 16 1 35 8 19 6 37 12
40 12 3 1 17 10 32 20 14 10 31 19 37 19 6 0 11 5 11 10 0 6 6 10 14 10 7 0
19 7 26 15 7 8 16 12 21 9 5 -3 9 0 9 6 0 6 5 8 10 5 6 -3 10 -1 10 5 0 6 5 8
10 5 6 -4 24 7 40 24 17 16 30 26 30 23 0 -4 7 1 14 11 8 10 16 18 18 17 1 -1
14 3 28 9 14 5 21 10 16 10 -5 1 12 16 39 35 56 40 165 144 165 158 0 5 4 7 8
4 10 -6 52 47 52 64 0 6 3 9 8 7 4 -3 18 13 32 34 13 21 28 39 32 39 4 0 8 7
8 16 0 8 5 12 10 9 9 -5 15 15 11 38 0 4 6 7 16 7 9 0 14 3 10 6 -3 3 9 28 28
54 19 26 31 51 28 54 -4 3 -1 6 6 6 7 0 10 4 7 9 -3 5 1 14 9 21 8 7 12 16 9
21 -3 5 0 9 6 9 6 0 9 4 6 9 -3 5 1 14 10 21 8 7 13 19 10 26 -3 7 2 15 10 18
9 3 12 10 9 16 -3 5 -1 10 5 10 6 0 8 5 5 10 -3 6 -2 10 4 10 6 0 8 6 5 14 -3
7 3 16 13 20 15 6 15 8 3 16 -8 6 -10 10 -4 10 7 0 15 7 18 16 4 10 2 13 -7 8
-6 -4 -5 1 4 12 9 10 22 35 29 54 7 19 18 41 23 48 6 8 5 12 -4 12 -10 0 -11
2 -2 8 6 4 14 24 18 44 4 21 11 35 16 32 5 -3 6 2 3 11 -4 8 -2 21 4 28 5 6 8
22 7 34 -1 12 3 19 8 16 6 -4 8 5 5 20 -3 15 -1 28 4 29 5 2 10 10 11 18 2 8
6 21 10 28 5 7 3 12 -4 12 -10 0 -10 3 -1 12 7 7 12 25 12 41 0 20 4 26 13 21
9 -6 9 -5 0 8 -7 8 -10 18 -6 22 4 4 8 21 9 39 5 52 10 83 19 97 6 9 4 11 -4
5 -10 -6 -11 -3 -3 11 5 11 7 25 5 32 -3 6 0 12 7 12 8 0 8 6 0 20 -8 15 -8
20 2 20 9 0 9 3 -2 10 -11 7 -11 10 -2 10 7 0 11 4 8 8 -2 4 -1 14 4 22 5 8 5
22 -1 32 -5 10 -6 18 -1 18 4 0 8 9 8 20 0 11 -4 20 -9 20 -5 0 -4 6 2 13 6 8
8 17 4 20 -3 4 -2 7 3 7 6 0 7 25 4 60 -3 33 -3 60 0 60 3 0 3 27 0 60 -3 33
-3 60 0 60 3 0 3 27 0 60 -3 33 -3 60 0 60 3 0 3 27 0 60 -3 33 -3 60 0 60 3
0 3 27 0 60 -3 33 -3 60 0 60 3 0 3 27 0 60 -3 33 -3 60 0 60 3 0 3 27 0 60
-3 33 -3 60 0 60 3 0 3 27 0 60 -3 33 -3 60 0 60 3 0 3 27 0 60 -3 33 -3 60 0
60 3 0 3 27 0 60 -3 33 -3 60 0 60 3 0 3 27 0 60 -3 33 -3 60 0 60 3 0 3 23 1
51 -2 31 1 49 7 46 5 -4 8 4 6 18 -1 14 3 25 9 25 5 0 7 3 4 7 -4 3 -2 12 4
20 9 9 8 13 0 13 -8 0 -7 9 4 29 11 23 12 31 2 34 -9 4 -9 6 0 6 7 1 10 8 7
16 -4 8 -2 15 3 15 5 0 9 10 7 23 -1 12 -3 22 -4 22 -7 0 -5 47 2 51 4 3 6 10
3 15 -4 5 -2 9 2 9 5 0 6 32 3 70 -3 39 -2 70 2 70 3 0 3 14 -2 30 -5 17 -6
30 -2 30 4 0 7 15 7 34 0 19 -4 32 -9 29 -5 -3 -7 6 -4 21 3 14 1 26 -5 26 -5
0 -5 5 2 13 8 10 7 17 -1 25 -9 9 -9 12 3 12 12 0 12 2 -1 10 -8 5 -11 10 -6
10 5 0 3 7 -4 15 -10 12 -10 15 1 15 11 0 11 2 -1 10 -12 8 -12 10 -1 10 11 0
9 5 -5 22 -10 12 -13 18 -6 14 9 -6 12 -2 10 10 -2 11 -6 21 -9 24 -13 10 -40
220 -29 220 3 0 3 27 0 60 -3 33 -3 60 0 60 3 0 3 27 0 60 -3 33 -3 60 0 60 3
0 3 27 0 60 -3 33 -3 60 0 60 3 0 3 27 0 60 -3 33 -3 60 0 60 3 0 3 27 0 60
-3 33 -3 60 0 60 3 0 3 27 0 60 -3 33 -3 60 0 60 3 0 3 27 0 60 -3 33 -3 60 0
60 3 0 3 27 0 60 -3 33 -3 60 0 60 3 0 3 27 0 60 -3 33 -3 60 0 60 3 0 3 27 0
60 -3 33 -3 60 0 60 3 0 3 27 0 60 -3 33 -3 60 0 60 3 0 3 27 0 60 -3 33 -3
60 0 60 3 0 3 27 0 60 -3 33 -3 60 0 60 3 0 3 27 0 60 -3 33 -3 60 0 60 3 0 3
27 0 60 -3 33 -3 60 0 60 3 0 3 27 0 60 -3 33 -3 60 0 60 3 0 3 27 0 60 -3 33
-3 60 0 60 3 0 3 27 0 60 -3 33 -3 60 0 60 3 0 3 27 0 60 -3 33 -3 60 0 60 3
0 3 36 0 80 -3 44 -3 80 0 80 3 0 3 27 0 60 -3 33 -3 60 0 60 3 0 3 27 0 60
-3 33 -3 60 0 60 3 0 3 27 0 60 -3 33 -3 60 0 60 3 0 3 27 0 60 -3 33 -3 60 1
60 3 0 4 11 1 25 -2 14 2 33 9 42 12 15 12 16 -1 8 -13 -8 -13 -7 -1 8 11 14
11 17 0 17 -9 0 -10 3 -4 8 6 4 11 12 12 17 0 6 4 26 8 45 4 19 7 43 8 53 1 9
4 17 8 17 4 0 10 7 13 16 4 10 2 13 -7 8 -9 -6 -9 -5 0 8 7 8 11 18 8 21 -3 4
-2 5 1 2 7 -5 54 61 54 75 0 6 5 10 10 10 6 0 10 7 10 17 0 9 3 14 6 11 7 -8
54 40 54 54 0 6 3 9 6 6 3 -3 20 9 39 27 18 19 35 32 37 29 3 -2 17 7 33 22
15 14 43 28 61 31 19 3 34 9 34 12 0 4 12 8 26 9 15 1 34 8 42 15 13 10 14 9
7 -3 -7 -12 -6 -13 6 -4 8 7 42 14 76 17 35 3 67 8 73 12 5 3 10 2 10 -4 0
-10 19 -9 38 2 7 5 12 3 12 -3 0 -7 6 -8 19 -1 10 6 20 8 23 6 2 -3 5 15 7 40
l2 45 -411 2 c-225 2 -410 0 -410 -4 0 -4 -13 -3 -30 2 -17 5 -30 5 -30 0 0
-5 -13 -5 -30 0 -17 5 -30 5 -30 0 0 -5 -13 -5 -30 0 -16 5 -30 6 -30 2 0 -4
-18 -7 -39 -7 -22 0 -37 3 -34 8 2 4 -1 7 -6 7 -6 0 -11 -5 -11 -10 0 -7 -6
-7 -19 0 -14 7 -21 6 -24 -3 -4 -9 -6 -9 -6 0 -1 7 -8 10 -16 7 -8 -4 -22 -1
-30 6 -12 10 -15 10 -15 0 0 -10 -3 -10 -15 0 -12 10 -15 10 -15 0 0 -10 -3
-10 -15 0 -12 10 -15 10 -15 0 0 -10 -3 -10 -15 0 -12 10 -15 10 -15 0 0 -10
-3 -10 -15 0 -12 10 -15 10 -15 0 0 -9 -3 -10 -13 -1 -8 6 -17 8 -20 4 -4 -3
-7 1 -7 9 0 12 -13 17 -50 20 -28 1 -50 1 -50 -2 0 -3 -27 -3 -60 0 -33 3 -60
3 -60 0 0 -3 -18 -5 -40 -5 -22 0 -40 4 -40 8 0 5 -5 5 -10 2 -6 -4 -17 -1
-25 5 -12 10 -15 10 -15 -1 0 -10 -2 -11 -8 -2 -4 7 -24 13 -45 15 -20 1 -37
7 -37 13 0 5 -5 3 -10 -5 -5 -8 -10 -10 -10 -4 0 7 -13 14 -30 16 -16 3 -30 1
-30 -4 0 -5 -10 -2 -23 6 -14 10 -27 12 -37 6 -8 -5 -22 -5 -33 2 -10 5 -21 7
-24 4 -3 -3 -15 -1 -26 5 -15 9 -18 8 -11 -3 6 -11 5 -11 -9 1 -9 7 -17 9 -17
3 0 -6 -13 -7 -34 -2 -19 4 -37 5 -40 2 -4 -3 -6 1 -6 9 0 11 -2 11 -10 -1 -7
-11 -10 -11 -10 -2 0 10 -5 10 -20 2 -12 -6 -20 -7 -20 -1 0 11 -19 9 -39 -3
-8 -5 -16 -4 -21 5 -7 10 -12 10 -26 -2 -16 -12 -17 -12 -9 1 8 13 7 13 -8 1
-13 -10 -17 -10 -17 -1 0 9 -4 9 -17 -1 -11 -10 -14 -10 -9 -1 9 15 5 15 -28
2 -19 -7 -26 -6 -26 3 0 8 -3 8 -9 -2 -5 -8 -10 -9 -12 -3 -3 7 -10 8 -22 1z
m63 -232 c0 9 143 8 166 -1 8 -3 14 -1 14 3 0 9 67 -2 77 -13 4 -3 12 -1 20 5
8 8 13 8 13 1 0 -6 11 -9 25 -7 14 1 25 -1 25 -5 0 -5 9 -6 20 -3 12 3 20 0
20 -6 0 -7 4 -10 9 -6 5 3 12 1 16 -4 3 -6 12 -8 20 -4 8 3 15 0 15 -7 0 -6 5
-8 10 -5 6 3 10 1 10 -4 0 -6 5 -11 11 -11 5 0 7 5 3 12 -4 6 8 0 28 -15 19
-15 38 -24 41 -20 4 3 7 1 7 -6 0 -7 5 -9 10 -6 6 3 10 1 10 -4 0 -6 9 -11 19
-11 11 0 29 -12 40 -26 12 -15 21 -23 21 -18 1 5 9 -1 19 -13 10 -12 21 -19
25 -16 3 4 6 1 6 -5 0 -6 9 -14 20 -17 11 -3 20 -12 20 -20 0 -8 9 -17 20 -20
11 -3 20 -11 20 -16 0 -5 11 -22 25 -37 14 -15 25 -32 25 -39 0 -7 5 -13 11
-13 5 0 7 -4 4 -10 -3 -5 -2 -10 3 -10 10 0 36 -53 32 -66 -1 -4 3 -10 9 -13
6 -4 12 -19 13 -34 1 -15 6 -27 11 -27 5 0 7 -11 5 -25 -3 -13 -2 -22 2 -20 4
3 10 -4 13 -15 3 -11 1 -20 -3 -20 -5 0 -2 -12 5 -27 10 -19 11 -29 4 -32 -7
-2 -6 -6 2 -12 12 -7 12 -9 0 -9 -11 0 -11 -3 -1 -15 7 -8 10 -21 7 -29 -6
-15 19 -30 34 -20 5 3 9 0 9 -6 0 -6 4 -9 9 -5 6 3 15 -4 21 -16 9 -16 9 -20
0 -14 -9 6 -9 2 -1 -14 7 -11 8 -21 3 -21 -5 0 -6 -18 -2 -40 4 -22 4 -40 0
-40 -3 0 -4 -22 0 -50 4 -27 3 -50 -2 -50 -5 0 -4 -9 2 -20 6 -11 7 -20 2 -20
-5 0 -6 -22 -2 -50 4 -27 4 -50 0 -50 -4 0 -4 -22 0 -50 4 -27 3 -50 -2 -50
-5 0 -4 -9 2 -20 6 -11 7 -20 2 -20 -5 0 -6 -22 -2 -50 4 -27 4 -50 0 -50 -4
0 -4 -22 0 -50 4 -27 3 -50 -2 -50 -5 0 -4 -9 2 -20 6 -11 7 -20 2 -20 -5 0
-6 -22 -2 -50 4 -27 4 -50 0 -50 -4 0 -4 -22 0 -50 4 -27 3 -50 -2 -50 -5 0
-4 -9 2 -20 6 -12 7 -20 1 -20 -6 0 -6 -11 -1 -30 5 -16 5 -30 1 -30 -5 0 -5
-18 -1 -40 4 -22 4 -40 0 -40 -4 0 -4 -18 0 -40 4 -22 4 -40 0 -40 -4 0 -4
-18 0 -40 4 -22 4 -40 0 -40 -4 0 -4 -18 0 -40 4 -22 4 -40 0 -40 -4 0 -4 -18
0 -40 4 -22 4 -40 0 -40 -4 0 -4 -18 0 -40 4 -22 4 -40 0 -40 -4 0 -4 -18 0
-40 4 -22 4 -40 -1 -40 -4 0 -4 -13 1 -30 5 -19 5 -30 -1 -30 -6 0 -5 -8 1
-20 6 -11 7 -20 2 -20 -5 0 -6 -22 -2 -50 4 -33 3 -50 -4 -50 -6 0 -4 -5 4
-10 8 -5 10 -10 4 -10 -14 0 -13 -32 1 -42 6 -5 5 -8 -3 -8 -7 0 -10 -4 -7
-10 9 -14 -4 -12 -19 3 -33 31 -66 56 -66 50 0 -4 -7 3 -16 15 -8 12 -19 20
-23 18 -4 -3 -14 6 -21 19 -7 14 -21 25 -29 25 -9 0 -22 9 -29 21 -7 12 -16
19 -18 16 -3 -3 -18 8 -33 24 -15 16 -31 26 -34 22 -4 -3 -7 1 -7 10 0 10 -5
17 -11 17 -5 0 -27 11 -47 25 -20 14 -33 25 -28 25 5 0 -9 12 -30 26 -21 15
-41 30 -42 35 -2 5 -8 7 -13 3 -5 -3 -9 2 -9 11 0 9 -5 13 -10 10 -6 -3 -13 1
-16 9 -3 9 -12 16 -20 16 -8 0 -14 5 -14 10 0 6 -8 14 -17 17 -10 4 -30 18
-44 32 -33 32 -56 51 -89 72 -14 9 -40 31 -59 48 -19 17 -37 28 -42 26 -4 -3
-11 0 -15 6 -5 8 -3 9 7 4 12 -8 12 -6 1 8 -8 9 -17 15 -21 14 -3 -1 -13 4
-21 11 -29 24 -58 47 -81 62 -12 8 -33 27 -47 43 -14 15 -31 27 -39 27 -7 0
-13 4 -13 9 0 5 -9 13 -20 16 -11 3 -20 13 -20 21 0 8 -5 14 -11 14 -6 0 -33
18 -59 40 -26 22 -53 40 -59 40 -7 0 -9 5 -6 10 3 6 1 10 -5 10 -12 0 -32 15
-58 43 -9 9 -20 17 -24 17 -9 0 -38 23 -74 58 -13 12 -28 22 -34 22 -5 0 -10
5 -10 11 0 5 -4 7 -10 4 -5 -3 -10 1 -10 9 0 8 -9 18 -20 21 -11 3 -20 11 -20
16 0 6 -4 8 -8 5 -5 -3 -15 4 -22 15 -8 10 -20 19 -28 19 -7 0 -10 5 -7 10 3
6 -1 10 -10 10 -9 0 -13 5 -10 10 3 6 2 10 -4 10 -16 0 -60 53 -54 64 3 6 3 8
-2 4 -8 -7 -35 15 -35 29 0 4 -9 14 -20 21 -12 7 -18 17 -15 22 3 6 1 10 -5
10 -6 0 -8 5 -5 10 3 6 1 10 -5 10 -6 0 -8 5 -5 10 3 6 0 10 -7 10 -8 0 -15
10 -15 22 -1 13 -7 24 -13 26 -5 2 -8 8 -4 13 3 5 0 9 -6 9 -7 0 -9 8 -5 21 5
15 4 19 -4 15 -10 -7 -15 8 -14 42 1 6 -4 12 -10 12 -6 0 -7 3 -4 6 3 4 2 15
-4 25 -7 14 -6 19 3 19 6 0 3 7 -8 16 -10 8 -13 12 -6 9 16 -8 13 26 -3 37 -6
5 -4 8 5 8 10 0 11 3 3 8 -13 8 -20 92 -10 109 4 6 1 14 -5 17 -8 4 -9 8 -3
11 6 3 10 23 9 45 0 23 2 43 6 45 4 2 6 22 6 44 -1 21 3 37 8 33 5 -3 7 2 3
11 -4 10 -1 17 6 17 8 0 8 3 -2 9 -9 6 -10 11 -2 15 6 4 9 11 6 16 -3 5 1 15
10 23 8 8 13 24 10 35 -2 11 3 23 11 26 8 3 14 15 14 26 0 11 5 20 11 20 5 0
7 5 4 10 -3 6 -2 10 2 10 5 0 14 9 21 21 8 12 9 18 3 14 -19 -11 -12 3 14 31
14 15 25 33 25 40 0 7 9 16 21 19 11 4 18 9 15 12 -3 4 8 19 24 35 16 15 27
28 24 28 -4 0 11 14 32 30 22 17 51 40 65 53 14 12 32 23 40 25 8 2 16 8 17
13 2 5 10 9 18 9 9 0 12 5 8 13 -4 6 -4 9 1 5 4 -4 22 0 39 9 17 10 34 16 39
15 4 -1 7 3 7 10 0 6 3 9 6 5 4 -3 20 1 36 9 16 8 44 17 62 19 19 3 45 9 60
15 18 7 26 6 26 -1 0 -8 4 -8 13 0 8 6 17 8 20 4 4 -3 7 -1 7 6 0 9 5 9 20 1
11 -6 20 -7 20 -3z"/>
<path d="M3130 1563 c0 -4 -23 -6 -51 -4 -29 2 -56 -2 -62 -8 -8 -8 -8 -11 1
-11 8 0 9 -7 2 -26 -12 -30 -12 -37 -2 -31 4 3 7 -6 7 -19 0 -13 -3 -24 -6
-24 -3 0 -6 -7 -6 -15 0 -8 4 -15 9 -15 5 0 4 -9 -2 -19 -12 -23 -13 -34 -2
-28 4 3 7 -6 7 -19 0 -13 -3 -24 -6 -24 -3 0 -6 -7 -6 -15 0 -8 4 -15 9 -15 5
0 4 -10 -3 -21 -8 -17 -8 -23 1 -29 8 -5 9 -13 4 -21 -10 -17 -15 -61 -6 -55
4 2 7 -7 7 -20 0 -13 -3 -24 -6 -24 -3 0 -6 -7 -6 -15 0 -8 4 -15 9 -15 5 0 4
-9 -2 -19 -12 -23 -13 -34 -2 -28 4 3 7 -6 7 -19 0 -13 -3 -24 -6 -24 -3 0 -6
-7 -6 -15 0 -8 4 -15 9 -15 5 0 4 -10 -3 -21 -8 -17 -8 -23 1 -29 8 -5 9 -13
4 -21 -11 -19 -13 -49 -2 -49 5 0 4 -9 -2 -19 -12 -23 -13 -34 -2 -28 4 3 7
-6 7 -19 0 -13 -2 -24 -5 -24 -3 0 -6 -9 -6 -20 0 -11 4 -20 9 -20 5 0 4 -7
-3 -15 -9 -11 -9 -15 -1 -15 8 0 9 -5 1 -19 -12 -24 -13 -34 -1 -27 5 4 8 -2
6 -11 -2 -10 -4 -18 -5 -18 -1 0 -3 -8 -5 -17 -2 -10 1 -18 6 -18 6 0 7 -5 4
-10 -3 -6 -3 -19 0 -31 6 -17 9 -18 23 -7 12 10 14 10 8 0 -9 -15 -1 -15 25
-2 10 6 19 7 19 2 0 -5 7 -9 15 -9 8 0 15 3 15 6 0 3 11 6 24 6 13 0 22 -3 20
-7 -6 -9 38 -4 55 6 8 5 16 4 21 -4 6 -9 12 -9 29 -1 11 7 21 8 21 3 0 -5 7
-9 15 -9 8 0 15 3 15 6 0 3 11 6 24 6 13 0 22 -3 19 -8 -6 -10 5 -9 28 3 10 6
19 7 19 2 0 -5 7 -9 15 -9 8 0 15 3 15 6 0 3 11 6 24 6 13 0 22 -3 19 -8 -6
-9 9 -9 24 1 9 5 11 55 10 180 -1 95 1 172 5 172 4 0 3 14 -2 30 -6 20 -5 30
2 30 6 0 6 6 -2 15 -10 12 -10 15 0 15 10 0 10 3 0 15 -8 9 -8 15 -2 15 7 0 8
10 2 30 -5 17 -5 30 0 30 5 0 5 13 0 30 -5 17 -5 30 0 30 5 0 5 13 0 30 -6 20
-5 30 2 30 6 0 6 6 -2 15 -10 12 -10 15 0 15 10 0 10 3 0 15 -8 9 -8 15 -2 15
7 0 8 10 2 30 -5 17 -5 30 0 30 5 0 5 13 0 30 -5 17 -5 30 0 30 5 0 5 13 0 30
-5 17 -5 30 0 30 5 0 5 13 0 30 -5 17 -5 30 -2 30 11 0 2 79 -9 86 -5 3 -9 1
-9 -4 0 -4 -22 -6 -50 -2 -27 4 -50 3 -50 -2 0 -5 -9 -4 -20 2 -11 6 -20 7
-20 2 0 -5 -22 -6 -50 -2 -27 4 -50 4 -50 0 0 -4 -22 -4 -50 0 -27 4 -50 3
-50 -2 0 -5 -9 -4 -20 2 -11 6 -20 7 -20 3z"/>
<path d="M8950 1559 c0 -5 -7 -6 -15 -3 -8 4 -15 2 -16 -2 -4 -45 -3 -77 2
-80 4 -2 3 -20 -1 -39 -4 -19 -4 -37 0 -40 4 -3 4 -21 0 -40 -4 -19 -4 -37 0
-40 4 -3 4 -21 0 -40 -4 -19 -4 -37 0 -40 4 -3 4 -21 0 -40 -4 -19 -4 -37 0
-40 4 -3 4 -21 0 -40 -4 -19 -4 -37 0 -40 4 -3 4 -21 0 -40 -4 -19 -4 -37 0
-40 4 -3 4 -21 0 -40 -4 -19 -4 -37 0 -40 4 -3 4 -21 0 -40 -4 -19 -4 -37 0
-40 4 -3 4 -21 0 -40 -4 -19 -4 -37 0 -40 4 -3 4 -21 0 -40 -4 -19 -4 -37 0
-40 4 -3 4 -21 0 -40 -4 -19 -4 -37 0 -40 4 -2 5 -15 3 -29 -4 -18 1 -27 17
-36 12 -7 20 -8 17 -3 -4 5 0 10 8 10 8 0 12 -4 9 -9 -7 -11 3 -10 27 2 10 6
19 7 19 2 0 -5 7 -9 15 -9 8 0 15 3 15 6 0 3 11 6 24 6 13 0 22 -3 19 -7 -6
-11 5 -10 28 2 10 6 19 7 19 2 0 -5 7 -9 15 -9 8 0 15 3 15 6 0 3 11 6 24 6
13 0 22 -3 19 -8 -6 -10 5 -9 28 3 13 8 19 7 19 0 0 -8 6 -8 20 0 14 8 20 8
20 0 0 -8 6 -8 20 0 14 8 20 8 20 0 0 -8 6 -8 20 0 14 8 20 8 20 0 0 -7 6 -8
19 -1 10 6 21 8 24 5 3 -3 10 4 17 15 8 16 8 21 -1 21 -8 0 -8 4 1 15 10 12
10 15 0 15 -10 0 -10 3 0 15 10 12 10 15 0 15 -10 0 -10 3 0 15 10 12 10 15 0
15 -10 0 -10 3 0 15 9 11 9 15 1 15 -9 0 -9 5 0 21 8 16 8 20 -1 14 -9 -6 -9
-2 -1 14 9 16 9 21 0 21 -9 0 -9 3 0 14 8 10 9 16 1 21 -7 4 -7 12 0 26 8 14
7 19 -1 19 -9 0 -9 3 0 14 8 10 9 16 1 21 -7 4 -7 12 0 26 8 14 7 19 -1 19 -9
0 -9 3 0 14 8 10 9 16 1 21 -7 4 -7 12 0 26 8 13 7 19 0 19 -6 0 -8 5 -4 12
12 19 12 48 1 48 -5 0 -4 7 3 15 10 12 10 15 0 15 -10 0 -10 3 0 15 10 12 10
15 0 15 -10 0 -10 3 0 15 10 12 10 15 0 15 -10 0 -10 3 0 15 10 12 10 15 0 15
-10 0 -10 3 0 15 10 12 10 15 0 15 -10 0 -10 3 0 15 10 12 10 15 0 15 -10 0
-10 3 0 15 10 12 10 15 0 15 -10 0 -10 3 0 15 10 12 10 15 0 15 -10 0 -10 3 0
15 9 11 9 15 1 15 -9 0 -9 5 0 21 8 16 8 20 -1 14 -9 -6 -9 -2 -1 14 9 16 9
21 0 21 -9 0 -9 3 0 14 8 10 9 16 1 21 -7 4 -7 12 0 26 8 13 7 19 0 19 -6 0
-8 5 -3 13 13 21 11 33 -8 58 -10 13 -19 18 -19 11 0 -10 -5 -10 -20 -2 -11 6
-20 7 -20 2 0 -5 -22 -6 -50 -2 -27 4 -50 4 -50 0 0 -4 -22 -4 -50 0 -27 4
-50 3 -50 -2 0 -5 -9 -4 -20 2 -11 6 -20 7 -20 2 0 -5 -22 -6 -50 -2 -27 4
-50 3 -50 0 0 -4 -18 -4 -40 0 -22 4 -40 4 -40 -1z"/>
<path d="M4510 1401 c0 -7 -6 -11 -15 -7 -8 3 -15 0 -15 -7 0 -8 -4 -6 -10 3
-7 11 -10 11 -10 2 0 -9 -5 -10 -17 -3 -10 5 -26 5 -40 0 -15 -6 -23 -5 -23 2
0 8 -5 7 -15 -1 -9 -8 -15 -8 -15 -2 0 7 -10 8 -30 2 -21 -6 -30 -5 -30 3 0 8
-3 7 -9 -2 -6 -9 -11 -10 -15 -2 -5 7 -15 7 -32 1 -14 -6 -23 -7 -20 -2 7 12
-84 6 -97 -7 -9 -10 -9 -12 3 -9 8 2 18 8 22 13 4 6 8 2 8 -7 0 -10 5 -17 12
-15 18 3 48 -65 37 -85 -7 -13 -6 -18 3 -18 8 0 9 -3 3 -8 -13 -9 -16 -42 -4
-42 6 0 5 -10 -2 -21 -8 -16 -8 -20 1 -14 9 6 9 3 1 -12 -7 -14 -7 -23 1 -31
8 -8 8 -12 2 -12 -6 0 -11 -7 -11 -15 0 -8 4 -15 9 -15 5 0 4 -10 -3 -21 -8
-16 -8 -20 1 -14 9 6 9 2 1 -14 -9 -16 -9 -21 1 -21 9 0 9 -3 0 -12 -13 -13
-17 -32 -4 -24 8 5 7 -62 -2 -71 -3 -4 -1 -12 5 -20 6 -7 7 -13 2 -13 -5 0
-10 -7 -10 -15 0 -8 4 -15 9 -15 5 0 4 -10 -3 -21 -8 -16 -8 -20 1 -14 9 6 9
2 1 -14 -9 -16 -9 -21 1 -21 9 0 9 -3 0 -12 -14 -14 -16 -32 -3 -24 14 9 0
-37 -17 -56 -8 -10 -21 -18 -28 -18 -7 0 -16 -5 -20 -12 -4 -7 -3 -8 4 -4 7 4
12 3 12 -2 0 -5 32 -10 72 -11 39 -1 75 -4 80 -7 4 -3 8 1 8 8 0 9 3 9 10 -2
7 -11 10 -11 10 -2 0 7 4 10 10 7 5 -3 19 -1 30 5 15 8 20 8 20 -1 0 -6 9 -9
20 -6 11 3 20 2 20 -1 0 -4 14 -7 30 -7 17 0 30 3 30 7 0 4 10 4 22 -1 16 -6
28 -3 43 11 20 19 21 22 24 54 0 8 5 13 10 10 5 -3 7 8 6 24 -1 17 1 30 6 30
5 0 5 7 2 17 -5 12 -3 14 7 8 9 -6 11 -4 6 4 -6 9 -13 8 -26 -6 -10 -10 -18
-20 -18 -23 0 -22 -5 -29 -22 -35 -11 -4 -18 -10 -15 -15 5 -9 -55 -33 -63
-25 -3 3 -12 0 -19 -7 -11 -9 -16 -9 -22 1 -9 14 -17 14 -43 0 -11 -6 -18 -6
-18 0 0 11 -19 9 -39 -3 -8 -5 -16 -4 -21 4 -4 7 -13 9 -20 5 -10 -6 -12 -1
-8 19 3 14 2 28 -1 30 -8 5 -5 75 3 83 3 4 1 12 -5 20 -6 7 -7 13 -2 13 5 0
10 7 10 15 0 8 -4 15 -9 15 -5 0 -5 8 -1 18 5 9 8 29 7 45 0 15 5 32 12 38 11
9 14 8 14 -1 0 -10 3 -10 15 0 8 7 15 8 15 3 0 -10 41 -10 58 1 7 4 12 3 12
-2 0 -10 30 -9 48 2 6 4 12 2 12 -3 0 -6 7 -11 15 -11 8 0 15 -5 15 -11 0 -5
-4 -7 -10 -4 -5 3 -7 0 -4 -8 11 -29 29 -13 29 25 0 21 -3 38 -7 38 -4 0 -3
12 3 27 7 18 6 30 -1 37 -8 8 -9 6 -5 -6 5 -11 2 -18 -5 -18 -7 0 -21 -10 -31
-22 -11 -12 -19 -16 -19 -8 0 9 -4 10 -13 2 -8 -7 -18 -7 -27 -2 -9 5 -19 5
-27 -2 -9 -7 -13 -7 -13 2 0 10 -3 10 -14 1 -11 -9 -15 -9 -19 1 -4 10 -6 10
-6 -1 -1 -11 -4 -11 -16 -1 -12 10 -15 10 -15 -1 -1 -18 -24 21 -25 41 0 8 3
23 8 33 5 11 4 17 -5 17 -8 0 -9 3 -3 8 13 9 16 42 4 42 -6 0 -5 10 2 21 8 16
8 20 -1 14 -9 -6 -9 -3 -1 12 7 14 7 23 -1 31 -8 8 -8 12 -2 12 6 0 11 7 11
15 0 8 -3 15 -7 15 -11 0 -5 37 10 55 10 12 15 13 21 4 6 -10 11 -10 23 0 12
11 16 11 16 1 0 -10 3 -10 15 0 8 7 15 8 15 3 0 -5 7 -10 15 -10 8 0 15 5 15
11 0 6 4 6 12 -2 8 -8 17 -8 31 -1 15 8 18 8 12 -1 -6 -9 -3 -9 13 -1 16 8 21
7 26 -5 3 -8 10 -12 16 -9 5 3 11 1 11 -4 2 -12 5 -26 9 -38 1 -5 2 -11 1 -15
0 -4 5 -5 12 -2 14 5 17 84 3 84 -5 0 -4 6 2 13 8 10 6 16 -9 25 -15 10 -19
10 -19 0 0 -9 -3 -8 -10 2 -7 12 -10 12 -10 1z"/>
<path d="M8390 1401 c0 -5 -11 -8 -25 -6 -14 1 -25 -3 -25 -9 0 -6 -5 -4 -10
4 -9 13 -10 13 -10 0 0 -13 -1 -13 -10 0 -7 11 -10 11 -10 2 0 -9 -5 -10 -17
-3 -10 5 -26 5 -40 0 -15 -6 -23 -5 -23 2 0 8 -5 7 -15 -1 -9 -8 -15 -8 -15
-2 0 7 -10 8 -30 2 -20 -6 -30 -5 -30 2 0 6 -6 6 -15 -2 -8 -7 -15 -8 -15 -3
0 10 -57 9 -67 -1 -4 -3 -12 -1 -19 5 -19 15 -24 -4 -6 -21 9 -8 18 -14 19
-12 2 1 10 2 19 2 11 0 14 -6 9 -20 -4 -13 -2 -20 7 -20 10 0 9 -3 -2 -10 -12
-8 -12 -10 -1 -10 11 0 11 -3 0 -17 -12 -15 -12 -16 1 -8 13 8 13 7 1 -9 -12
-14 -12 -19 -2 -26 8 -5 10 -13 5 -21 -11 -19 -13 -49 -2 -49 5 0 4 -9 -2 -19
-12 -24 -13 -34 -1 -27 5 4 8 -2 6 -11 -2 -10 -4 -18 -5 -18 -1 0 -3 -8 -5
-17 -2 -10 1 -18 6 -18 6 0 5 -8 -1 -20 -8 -14 -8 -20 0 -20 7 0 8 -6 0 -19
-7 -13 -7 -22 0 -26 7 -4 7 -13 0 -26 -8 -14 -7 -19 1 -19 8 0 8 -4 1 -12 -15
-19 -15 -30 -2 -38 8 -5 9 -13 4 -21 -12 -20 -14 -39 -3 -39 6 0 5 -8 -1 -20
-8 -14 -8 -20 0 -20 7 0 8 -6 0 -19 -6 -13 -7 -22 0 -26 21 -13 -26 -78 -52
-72 -7 2 -10 2 -5 0 4 -3 4 -10 1 -15 -4 -6 -3 -9 2 -6 5 3 30 3 57 -2 26 -4
47 -3 47 1 0 4 14 4 30 -1 19 -5 30 -5 30 1 0 6 4 7 10 4 5 -3 19 -1 30 5 15
8 20 8 20 -1 0 -8 4 -8 15 1 12 10 15 10 15 0 0 -10 3 -10 15 0 12 10 15 10
15 0 0 -8 3 -11 6 -7 3 3 17 2 30 -3 14 -6 24 -6 24 -1 0 5 9 7 21 4 26 -7 71
17 65 34 -3 7 -1 13 5 13 6 0 7 5 4 10 -3 6 -1 10 5 10 6 0 8 5 5 10 -4 6 -2
16 3 23 13 15 19 53 10 55 -5 1 -9 -1 -10 -5 -2 -9 -14 -25 -40 -53 -9 -10
-14 -21 -12 -24 2 -3 1 -4 -2 -2 -3 3 -21 -4 -39 -14 -24 -14 -35 -16 -39 -7
-3 8 -7 9 -13 2 -10 -12 -43 -16 -43 -4 0 8 -33 5 -50 -6 -6 -3 -10 -2 -10 4
0 11 -19 9 -39 -3 -17 -11 -33 12 -25 38 4 11 2 16 -4 12 -6 -3 -9 1 -7 11 2
10 4 18 5 18 1 0 3 8 5 18 2 9 -1 17 -6 17 -5 0 -4 10 2 23 15 26 14 27 -1 37
-8 5 -9 13 -4 21 12 20 14 39 3 39 -6 0 -5 9 2 21 9 17 8 20 -2 14 -8 -6 -10
-4 -4 6 20 34 27 40 41 28 8 -6 14 -7 14 -2 0 5 7 10 15 10 8 0 15 -5 15 -10
0 -5 7 -4 15 3 8 7 15 8 15 3 0 -11 29 -11 48 1 6 4 12 3 12 -2 0 -6 8 -9 17
-8 11 0 19 -7 21 -21 2 -12 10 -24 19 -27 10 -4 14 -2 10 8 -3 7 0 19 6 25 8
8 7 11 -3 11 -13 0 -13 2 0 10 10 6 11 10 3 10 -9 0 -10 7 -3 25 5 14 6 25 1
25 -5 0 -7 8 -4 19 3 10 -1 22 -8 26 -7 5 -10 4 -5 -3 3 -6 2 -13 -4 -17 -6
-4 -8 -10 -5 -15 3 -4 -6 -15 -19 -24 -18 -12 -26 -12 -29 -3 -4 8 -6 8 -6 -2
-1 -11 -4 -11 -16 -1 -12 10 -15 10 -15 0 0 -10 -3 -10 -15 0 -12 10 -15 10
-15 0 0 -10 -3 -10 -15 0 -12 10 -15 10 -15 -1 0 -10 -3 -10 -12 -1 -8 8 -17
8 -31 1 -14 -8 -18 -8 -13 0 4 6 0 11 -9 11 -13 0 -14 4 -5 20 8 14 8 20 0 20
-8 0 -8 6 0 20 8 14 8 20 0 20 -8 0 -8 6 0 20 8 14 8 20 0 20 -8 0 -8 6 0 20
7 13 7 20 1 20 -7 0 -7 9 0 27 7 19 7 28 -2 34 -9 5 -10 11 -2 21 16 19 17 30
1 39 -10 7 -10 9 0 9 8 0 10 5 6 12 -5 7 -2 9 8 5 9 -3 21 0 27 6 8 8 11 8 11
-2 0 -11 3 -11 15 -1 8 7 15 8 15 3 0 -5 7 -10 15 -10 8 0 15 5 15 11 0 6 4 6
12 -2 8 -8 17 -8 31 -1 11 6 17 7 14 2 -3 -5 7 -9 23 -8 15 0 26 3 23 7 -2 5
-1 8 4 8 4 0 18 -15 31 -33 12 -17 22 -25 22 -17 0 13 1 13 10 0 6 -9 10 -10
10 -3 0 6 -5 15 -10 18 -7 4 -6 14 1 28 9 16 9 22 0 25 -6 2 -9 7 -6 12 3 4
-2 10 -10 14 -8 3 -15 1 -15 -3z"/>
<path d="M4978 1387 c-12 -9 -14 -17 -7 -30 6 -9 6 -17 1 -17 -5 0 -8 -13 -7
-30 1 -16 -2 -30 -7 -30 -5 0 -4 -9 2 -20 7 -14 7 -22 -4 -32 -9 -9 -11 -21
-6 -40 6 -20 4 -28 -8 -33 -14 -5 -14 -7 -2 -16 10 -5 11 -12 5 -16 -5 -5 -12
-37 -13 -73 -2 -36 -9 -68 -15 -72 -8 -5 -7 -8 3 -8 13 0 13 -1 0 -10 -13 -9
-13 -11 0 -20 8 -5 10 -10 4 -10 -7 0 -11 -14 -10 -35 1 -19 -2 -35 -5 -35 -4
0 -5 -10 -1 -22 3 -11 1 -19 -4 -16 -5 4 -9 -5 -9 -18 0 -13 2 -24 5 -24 3 0
5 -11 5 -24 0 -13 -4 -22 -9 -18 -5 3 -7 -1 -4 -9 5 -13 -29 -68 -38 -61 -11
7 -25 0 -21 -10 2 -7 9 -12 15 -11 6 2 23 -2 37 -7 18 -7 25 -6 25 3 0 8 4 7
10 -3 5 -8 10 -10 10 -4 0 6 14 10 30 9 35 -2 37 4 10 35 -16 18 -17 25 -8 32
10 6 10 8 -1 8 -10 0 -11 3 -2 13 8 10 7 17 -1 25 -9 9 -9 12 1 12 10 0 11 3
2 13 -8 10 -7 17 1 25 9 9 9 12 -1 12 -10 0 -11 3 -2 13 6 8 8 17 4 20 -3 4 0
7 8 7 11 0 11 2 -1 10 -13 9 -13 10 0 10 13 0 13 1 0 10 -8 5 -10 10 -4 10 6
0 10 12 8 27 -1 15 2 36 8 47 8 14 8 21 0 24 -7 2 -7 14 0 38 5 20 7 42 4 50
-3 8 -2 14 3 14 4 0 6 13 3 29 -3 19 1 30 12 34 14 6 19 -3 15 -30 0 -3 6 -10
15 -15 9 -5 16 -16 16 -23 0 -8 5 -15 11 -15 6 0 9 -7 6 -15 -4 -8 -2 -17 3
-20 6 -4 10 -15 10 -26 0 -10 5 -19 11 -19 5 0 7 -4 4 -10 -3 -5 -2 -10 3 -10
9 0 25 -37 23 -52 -1 -5 4 -8 10 -8 6 0 9 -6 6 -14 -3 -8 1 -17 10 -20 8 -4
13 -13 9 -21 -3 -8 -1 -15 4 -15 6 0 15 -20 22 -45 7 -25 16 -45 21 -45 4 0 5
-5 2 -10 -3 -6 0 -13 8 -16 8 -3 18 -21 21 -40 4 -19 11 -34 17 -34 6 0 7 -4
4 -10 -9 -15 11 -12 24 3 6 8 14 28 17 45 4 18 11 32 16 32 5 0 6 5 3 10 -3 5
-1 10 5 10 6 0 9 4 6 9 -3 4 1 16 8 27 8 10 12 24 9 31 -3 7 1 13 8 13 7 0 10
3 6 6 -3 4 1 13 9 21 8 8 12 19 9 24 -4 5 -1 9 5 9 6 0 8 5 5 10 -3 6 -2 10 4
10 5 0 8 9 6 20 -2 11 0 18 4 16 4 -3 14 13 21 34 7 22 17 40 23 40 5 0 7 7 3
15 -3 8 -1 15 4 15 6 0 10 9 10 20 0 11 5 20 11 20 5 0 8 4 5 9 -3 5 1 14 9
21 8 7 13 16 10 20 -3 5 -1 11 5 15 6 4 8 10 5 15 -3 4 1 10 9 13 9 4 16 -3
19 -19 2 -13 0 -24 -4 -24 -5 0 -4 -11 1 -24 5 -13 6 -27 3 -30 -4 -3 -1 -6 6
-6 8 0 9 -5 1 -19 -7 -14 -6 -21 3 -25 9 -5 9 -7 -1 -12 -8 -4 -10 -10 -4 -17
13 -16 20 -87 10 -87 -5 0 -4 -9 3 -21 6 -12 9 -30 6 -40 -3 -10 -1 -22 4 -25
6 -3 5 -11 -2 -20 -9 -11 -9 -14 1 -14 8 0 10 -3 7 -7 -4 -3 -2 -12 4 -20 6
-7 8 -13 3 -13 -5 0 -8 -20 -8 -44 2 -37 -1 -45 -20 -51 -20 -6 -19 -7 9 -20
17 -7 31 -10 33 -6 1 5 21 5 42 1 23 -4 40 -3 40 2 0 5 4 7 9 3 5 -3 13 0 17
6 5 8 8 8 14 0 5 -8 11 -7 21 6 7 10 10 15 5 11 -5 -4 -21 -1 -37 8 -25 13
-34 30 -30 57 0 4 -4 7 -10 7 -6 0 -9 6 -6 13 2 6 0 24 -4 40 -5 18 -4 27 4
27 8 0 9 3 1 8 -6 4 -11 21 -11 37 0 17 -3 38 -7 48 -14 40 -15 47 -3 47 8 0
6 4 -3 10 -13 9 -13 10 0 10 12 1 12 3 -2 14 -10 7 -15 15 -12 19 12 12 10 42
-4 56 -10 11 -11 16 -3 19 9 3 9 7 0 18 -8 10 -9 14 0 14 8 0 6 10 -5 31 -11
23 -12 29 -2 23 10 -6 10 -4 -1 9 -9 12 -10 17 -2 17 7 0 9 5 4 13 -10 16 -15
37 -14 65 1 13 -4 32 -9 42 -7 13 -7 21 0 25 7 4 8 11 1 18 -9 11 -11 18 -11
33 0 4 -9 -5 -21 -20 -11 -14 -18 -30 -14 -35 3 -5 1 -12 -5 -16 -6 -4 -8 -11
-5 -16 4 -5 2 -9 -2 -9 -5 0 -17 -22 -28 -50 -11 -27 -23 -50 -27 -50 -4 0 -7
-3 -6 -7 1 -5 -3 -18 -10 -29 -6 -12 -8 -24 -5 -28 3 -3 0 -6 -7 -6 -7 0 -10
-3 -7 -7 4 -3 2 -12 -4 -20 -6 -7 -8 -13 -5 -13 4 0 -2 -13 -13 -29 -11 -15
-18 -31 -14 -35 3 -3 1 -6 -6 -6 -7 0 -9 -4 -6 -10 3 -5 1 -10 -4 -10 -6 0
-11 -9 -11 -19 0 -11 -5 -23 -10 -26 -6 -4 -8 -11 -5 -16 4 -5 1 -9 -5 -9 -6
0 -9 -4 -5 -9 3 -5 1 -12 -5 -16 -6 -4 -8 -11 -5 -16 4 -5 1 -9 -4 -9 -6 0
-11 -7 -11 -15 0 -8 -4 -15 -10 -15 -5 0 -7 -6 -5 -12 6 -18 -26 -57 -32 -40
-3 6 -8 10 -12 8 -4 -3 -8 4 -8 16 -1 11 -11 37 -22 59 -12 22 -21 46 -21 54
0 8 -4 15 -10 15 -5 0 -10 9 -10 20 0 11 -4 20 -10 20 -5 0 -9 3 -8 8 0 4 -13
37 -30 74 -18 37 -32 72 -32 78 0 5 -4 10 -10 10 -5 0 -10 6 -10 13 0 18 -24
67 -32 67 -5 0 -8 11 -8 24 0 14 -4 28 -10 31 -5 3 -10 15 -10 26 0 10 -4 19
-9 19 -8 0 -24 37 -22 53 1 9 -1 9 -21 -6z"/>
<path d="M5957 1393 c-3 -4 1 -14 9 -21 8 -7 14 -10 14 -6 0 4 10 -3 22 -16
20 -21 43 -110 29 -110 -4 0 -4 -27 -1 -60 3 -33 3 -60 0 -60 -4 0 -4 -22 0
-50 4 -27 3 -50 -2 -50 -5 0 -4 -9 2 -20 6 -11 7 -20 2 -20 -5 0 -6 -22 -2
-50 4 -27 4 -50 1 -50 -8 0 -5 -106 3 -119 4 -5 2 -12 -3 -16 -6 -3 -8 -12 -5
-20 6 -14 -20 -49 -38 -51 -4 -1 -11 -2 -14 -3 -4 0 -1 -7 5 -15 8 -10 34 -14
84 -14 78 0 119 9 99 22 -7 4 -12 4 -12 1 0 -16 -41 35 -43 54 -1 11 -4 21 -7
21 -3 0 -6 9 -6 20 0 11 3 20 6 20 4 0 7 7 7 15 0 8 -4 15 -9 15 -5 0 -4 9 2
19 12 24 13 34 1 27 -5 -4 -8 2 -6 11 2 10 4 18 5 18 1 0 3 12 4 28 1 15 -3
27 -9 27 -5 0 -3 5 5 10 13 8 13 10 1 10 -11 0 -12 3 -3 12 7 7 8 17 1 30 -5
10 -6 18 -1 18 5 0 9 7 9 15 0 8 -4 15 -9 15 -5 0 -4 9 2 19 12 24 13 34 1 27
-5 -4 -8 2 -6 11 2 10 4 18 5 18 1 0 3 8 5 18 2 9 -1 17 -6 17 -6 0 -5 8 1 20
8 14 8 20 0 20 -8 0 -8 6 0 20 8 14 8 20 0 20 -7 0 -8 6 0 19 7 13 7 22 0 26
-7 4 -7 12 0 25 13 24 13 33 0 25 -5 -3 -10 -4 -10 0 0 12 45 22 58 13 8 -7
12 -7 12 2 0 10 3 10 14 1 11 -9 15 -9 19 1 4 8 8 9 14 3 4 -5 23 -11 41 -12
18 -1 39 -8 47 -17 8 -8 19 -16 25 -18 6 -2 12 -13 13 -26 0 -12 4 -22 8 -22
4 0 9 -9 12 -20 3 -11 2 -20 -3 -20 -11 0 -7 -33 5 -42 6 -5 4 -8 -5 -8 -13 0
-13 -1 0 -10 13 -9 13 -10 0 -10 -13 0 -13 -1 0 -10 8 -5 10 -10 4 -10 -7 0
-15 -7 -18 -16 -4 -10 -2 -13 7 -8 6 4 -6 -12 -27 -34 -22 -23 -42 -40 -44
-37 -3 3 -12 0 -19 -7 -8 -6 -38 -12 -68 -12 -41 0 -52 -3 -48 -14 4 -10 8
-10 13 -2 5 8 11 6 20 -5 15 -19 100 -21 119 -2 11 10 12 9 6 -3 -5 -9 1 -7
15 5 15 13 21 15 16 5 -4 -8 0 -6 8 4 9 11 16 16 16 11 0 -5 13 4 30 20 16 15
27 32 24 37 -3 4 0 8 6 8 6 0 9 4 6 9 -3 5 1 12 10 15 8 3 12 11 9 16 -4 6 -1
17 5 25 10 11 10 15 1 15 -7 0 -9 5 -4 13 10 16 13 37 4 37 -4 0 -8 9 -9 20
-1 11 -2 27 -3 35 -1 9 -13 27 -25 40 -13 14 -20 25 -17 25 16 0 -34 29 -50
30 -11 0 -15 4 -11 12 4 7 3 8 -5 4 -6 -4 -18 -2 -26 4 -12 10 -15 10 -15 0 0
-10 -3 -10 -15 0 -8 7 -22 10 -30 6 -8 -3 -15 -2 -15 2 0 4 -9 8 -20 8 -11 0
-20 -5 -20 -11 0 -5 -5 -3 -10 5 -8 12 -11 13 -19 1 -6 -10 -10 -10 -16 -1 -6
9 -10 9 -16 -1 -7 -12 -9 -12 -9 0 0 11 -3 11 -15 1 -12 -10 -15 -10 -15 1 0
12 -2 12 -9 0 -6 -9 -11 -10 -15 -2 -5 8 -13 8 -28 0 -16 -8 -19 -8 -13 1 6 9
3 9 -12 1 -14 -7 -23 -7 -30 0 -6 6 -13 7 -16 2z"/>
<path d="M6686 1383 c-3 -6 2 -14 10 -17 10 -4 12 -2 8 6 -4 6 4 3 18 -8 14
-10 24 -22 22 -25 -1 -3 3 -17 11 -32 8 -15 10 -27 6 -27 -9 0 -8 -36 1 -45 3
-3 2 -22 -2 -41 -4 -19 -5 -36 -1 -38 8 -5 6 -75 -3 -83 -3 -4 -1 -12 5 -20 6
-7 7 -13 2 -13 -5 0 -10 -7 -10 -15 0 -8 4 -15 9 -15 5 0 4 -10 -3 -21 -8 -16
-8 -20 1 -14 9 6 9 2 1 -14 -9 -16 -9 -21 1 -21 9 0 9 -3 0 -12 -14 -14 -16
-32 -2 -23 7 4 7 -3 0 -19 -7 -19 -6 -26 3 -26 7 0 8 -3 2 -8 -13 -9 -16 -42
-4 -42 6 0 5 -9 -1 -20 -8 -15 -8 -20 1 -20 9 0 9 -3 0 -14 -9 -11 -9 -15 1
-19 11 -4 10 -6 0 -6 -7 -1 -11 -5 -7 -11 6 -10 -29 -50 -44 -50 -6 0 -13 -5
-17 -12 -4 -7 -3 -8 4 -4 7 4 12 2 12 -4 0 -7 6 -10 13 -7 6 2 24 0 39 -4 18
-5 29 -3 32 4 3 8 8 7 15 -3 10 -13 11 -13 11 0 0 13 1 13 10 0 6 -10 10 -11
10 -2 0 6 5 12 11 12 5 0 7 -5 3 -12 -5 -7 -3 -8 7 -2 8 5 17 9 22 9 4 0 6 5
5 10 -2 6 -6 9 -10 7 -5 -1 -8 2 -8 8 0 5 -6 10 -13 10 -8 0 -14 6 -15 13 0 6
-5 29 -10 50 -6 20 -7 37 -3 37 4 0 5 23 1 50 -4 28 -3 50 2 50 5 0 4 9 -2 20
-6 11 -7 20 -2 20 5 0 6 23 2 50 -4 28 -4 50 0 50 4 0 4 23 0 50 -4 28 -3 50
2 50 5 0 4 9 -2 20 -8 14 -8 20 0 20 8 0 8 6 0 20 -8 14 -8 20 0 20 8 0 8 6 0
20 -6 11 -7 20 -1 20 12 0 9 33 -4 42 -6 5 -4 8 5 8 13 0 13 1 0 10 -8 5 -10
10 -5 10 6 0 11 10 12 21 2 27 2 27 37 33 37 7 40 10 19 27 -15 12 -16 12 -10
-6 6 -18 6 -18 -6 -3 -9 12 -18 14 -30 7 -11 -7 -17 -7 -17 0 0 6 -11 6 -30 1
-20 -6 -30 -5 -30 2 0 6 -7 5 -17 -3 -9 -8 -14 -9 -11 -4 4 6 -6 10 -23 10
-16 0 -31 -5 -33 -12z"/>
<path d="M7166 1383 c-3 -6 2 -14 10 -17 10 -4 12 -2 8 6 -4 6 4 3 17 -7 14
-10 26 -28 27 -39 0 -11 6 -22 12 -24 5 -2 7 -9 3 -15 -10 -16 -11 -47 -2 -52
4 -3 3 -21 -1 -40 -4 -19 -5 -37 -1 -39 8 -5 6 -75 -3 -83 -3 -4 -1 -12 5 -20
6 -7 7 -13 2 -13 -5 0 -10 -7 -10 -15 0 -8 4 -15 9 -15 5 0 4 -10 -3 -21 -8
-16 -8 -20 1 -14 9 6 9 2 1 -14 -9 -16 -9 -21 1 -21 9 0 9 -3 0 -12 -13 -13
-17 -32 -4 -24 8 5 7 -62 -2 -71 -3 -4 -1 -12 5 -20 6 -7 7 -13 2 -13 -5 0
-10 -7 -10 -15 0 -8 3 -15 7 -15 4 0 7 -7 7 -15 0 -8 -3 -15 -7 -15 -3 0 -6
-10 -7 -22 -2 -24 -42 -60 -57 -51 -5 3 -7 0 -4 -7 2 -8 24 -15 54 -17 27 -2
57 -5 67 -7 9 -2 17 -1 17 4 0 4 6 8 13 7 31 -1 44 4 44 18 0 8 -4 15 -9 15
-4 0 -8 -4 -8 -10 0 -5 -8 -2 -18 8 -20 20 -35 62 -22 62 4 0 4 18 0 40 -4 22
-4 40 1 40 4 0 4 14 -1 30 -5 19 -5 30 1 30 6 0 5 8 -1 20 -6 11 -7 20 -2 20
5 0 6 23 2 50 -4 28 -4 50 0 50 4 0 4 23 0 50 -4 28 -3 50 2 50 5 0 4 9 -2 20
-8 14 -8 20 0 20 8 0 8 6 0 20 -8 14 -8 20 0 20 8 0 8 6 0 20 -6 11 -7 20 -3
20 4 0 8 20 8 44 0 25 -3 42 -7 40 -13 -8 -9 6 6 21 10 10 16 11 25 2 8 -8 11
-8 11 1 0 7 5 12 11 12 5 0 8 -4 5 -8 -2 -4 4 -8 14 -8 10 0 16 4 14 8 -8 12
11 9 24 -4 9 -9 12 -9 12 1 0 10 4 10 13 3 6 -5 21 -12 32 -14 22 -3 55 -33
55 -48 0 -5 5 -10 11 -10 5 0 7 -4 4 -10 -3 -5 0 -10 7 -10 9 0 9 -3 -2 -10
-11 -7 -11 -10 -2 -10 7 0 10 -4 7 -10 -3 -5 0 -10 7 -10 8 0 9 -3 3 -8 -13
-9 -15 -42 -3 -42 6 0 3 -11 -6 -25 -9 -14 -14 -30 -11 -35 3 -6 2 -10 -4 -10
-5 0 -13 -9 -16 -20 -3 -11 -12 -20 -19 -20 -7 0 -21 -8 -32 -19 -16 -14 -25
-16 -39 -9 -13 8 -16 7 -10 -2 6 -9 3 -9 -13 -1 -15 8 -23 8 -28 0 -4 -7 -9
-8 -13 -1 -4 6 -11 4 -19 -4 -10 -11 -10 -14 2 -14 7 0 16 -7 20 -15 3 -8 12
-15 21 -15 8 0 15 -7 15 -16 0 -8 5 -12 10 -9 6 3 10 -3 10 -14 0 -12 4 -21 9
-21 6 0 20 -18 32 -40 13 -22 26 -40 31 -40 4 0 8 -7 8 -15 0 -8 5 -15 10 -15
6 0 10 -5 10 -11 0 -7 10 -20 22 -30 11 -11 17 -19 13 -19 -4 0 4 -11 19 -25
14 -13 26 -29 26 -35 0 -5 9 -10 20 -10 11 0 20 -5 20 -11 0 -5 5 -7 10 -4 6
3 10 1 10 -5 0 -7 8 -9 20 -5 12 4 20 2 20 -5 0 -8 6 -8 20 0 11 6 20 7 20 2
0 -11 38 -8 48 4 4 5 5 8 3 7 -2 -2 -11 3 -19 10 -11 8 -13 8 -9 0 5 -8 1 -8
-18 0 -14 7 -25 15 -25 20 0 4 -6 7 -14 7 -8 0 -18 9 -21 20 -3 11 -12 20 -18
20 -7 0 -21 16 -31 35 -10 19 -23 32 -27 29 -5 -3 -9 1 -9 9 0 7 -9 23 -20 35
-11 12 -20 26 -20 32 0 5 -4 10 -10 10 -5 0 -10 7 -10 15 0 8 -4 15 -9 15 -5
0 -13 9 -16 20 -3 11 -13 20 -22 20 -10 0 -13 6 -9 16 3 9 6 17 6 20 0 2 7 1
15 -2 8 -4 15 -1 15 6 0 6 5 8 10 5 6 -3 10 -2 10 4 0 5 9 13 20 16 11 4 18
11 15 16 -4 5 1 9 10 9 9 0 13 5 10 10 -3 6 -1 10 4 10 6 0 11 8 11 17 0 9 8
25 18 36 12 15 13 18 2 12 -13 -8 -13 -6 -2 8 8 9 11 21 7 27 -3 5 -1 10 6 10
8 0 8 4 -1 15 -10 12 -10 15 1 15 11 0 11 2 -1 10 -8 5 -11 10 -6 10 4 0 1 12
-9 26 -9 15 -12 23 -6 20 6 -4 1 8 -12 27 -12 19 -26 32 -30 30 -5 -3 -14 3
-22 13 -7 11 -17 19 -22 20 -4 0 -16 4 -25 8 -9 4 -22 8 -30 10 -7 1 -19 5
-25 9 -7 5 -13 4 -13 -1 0 -5 -7 -9 -15 -9 -8 0 -15 4 -15 8 0 10 -34 6 -42
-6 -5 -7 -8 -6 -8 0 0 6 -12 10 -27 9 -16 -1 -28 -3 -28 -4 0 -1 -15 -2 -33
-3 -17 -1 -32 2 -32 7 0 5 -8 2 -17 -5 -9 -8 -14 -9 -11 -4 4 6 -6 10 -23 10
-16 0 -31 -5 -33 -12z"/>
</g>
</svg>
